<svg xmlns="http://www.w3.org/2000/svg" viewBox="0 0 200 200"><defs><linearGradient id="gold-grad" x1="0%" y1="0%" x2="100%" y2="100%"><stop offset="0%" style="stop-color:#FFD700;stop-opacity:1" /><stop offset="100%" style="stop-color:#DAA520;stop-opacity:1" /></linearGradient></defs><path fill="url(#gold-grad)" d="M100 30 C 61.34 30 30 61.34 30 100 C 30 138.66 61.34 170 100 170 C 128.5 170 153.5 153 164 128 L 128 128 L 128 112 L 180 112 C 182 118 183 124 183 130 C 183 165 155 190 100 190 C 50.29 190 10 149.71 10 100 C 10 50.29 50.29 10 100 10 C 123 10 144 18 160 32 L 145 47 C 133 37 118 30 100 30 Z"/></svg>
